<?xml version="1.0" standalone="no"?>
<!DOCTYPE svg PUBLIC "-//W3C//DTD SVG 20010904//EN"
 "http://www.w3.org/TR/2001/REC-SVG-20010904/DTD/svg10.dtd">
<svg version="1.0" xmlns="http://www.w3.org/2000/svg"
 width="1024.000000pt" height="1024.000000pt" viewBox="0 0 1024.000000 1024.000000"
 preserveAspectRatio="xMidYMid meet">

<g transform="translate(0.000000,1024.000000) scale(0.100000,-0.100000)"
fill="#000000" stroke="none">
<path d="M5661 7692 c-6 -11 -6 -24 0 -35 8 -14 25 -17 101 -17 l90 0 -63 -72
c-35 -39 -220 -246 -410 -459 l-346 -387 -144 101 c-196 137 -202 140 -222
124 -27 -21 -386 -511 -387 -528 0 -23 26 -42 47 -35 10 4 92 108 183 231 91
124 170 232 176 241 10 13 36 -2 174 -101 89 -63 170 -115 181 -115 12 0 163
163 436 470 l418 470 3 -73 c3 -79 19 -105 53 -86 17 9 19 23 19 137 0 86 -4
132 -12 140 -8 8 -56 12 -150 12 -121 0 -138 -2 -147 -18z"/>
<path d="M5701 7236 c-7 -8 -10 -24 -6 -35 6 -19 16 -21 173 -23 l167 -3 3
-647 2 -648 -60 0 -60 0 0 539 c0 448 -2 540 -14 550 -9 8 -55 11 -137 9
l-124 -3 -3 -547 -2 -548 -80 0 -80 0 0 208 c0 148 -3 211 -12 220 -17 17
-249 17 -266 0 -9 -9 -12 -72 -12 -220 l0 -208 -75 0 -75 0 0 265 c0 325 9
305 -141 305 -55 0 -109 -5 -120 -10 -18 -10 -19 -24 -19 -285 l0 -275 -80 0
-80 0 0 119 c0 89 -3 121 -14 130 -9 8 -55 11 -137 9 l-124 -3 -3 -127 -3
-128 -179 0 -180 0 0 75 0 74 101 3 c107 3 130 14 116 52 -5 13 -23 16 -112
16 l-105 0 0 75 0 75 105 0 c89 0 107 3 112 16 14 38 -9 49 -116 52 l-101 3 0
69 0 70 84 0 c99 0 136 11 136 40 0 29 -37 40 -136 40 l-84 0 0 70 0 69 101 3
c82 2 104 6 112 20 8 12 7 21 -2 32 -11 13 -34 16 -112 16 l-99 0 0 75 0 75
105 0 c89 0 107 3 112 16 14 38 -9 49 -116 52 l-102 3 3 92 3 92 684 5 c624 5
685 6 694 22 8 12 7 21 -2 32 -12 14 -86 16 -703 16 l-690 0 -27 -28 -28 -27
-6 -755 c-5 -488 -3 -768 3 -791 6 -19 22 -46 36 -60 l26 -24 384 -3 384 -3 0
-75 c0 -117 -22 -143 -117 -144 -73 0 -93 -6 -93 -29 0 -40 6 -41 497 -41 442
0 473 1 482 18 6 11 6 24 0 35 -8 14 -24 17 -84 17 -100 0 -112 13 -117 124
-2 44 -2 84 0 89 2 4 174 7 382 7 l380 0 32 29 33 29 0 796 0 796 -28 27 -27
28 -173 3 c-145 3 -176 1 -186 -12z m349 -1519 c0 -51 -5 -88 -12 -95 -9 -9
-253 -12 -1034 -12 l-1023 0 -15 22 c-11 15 -16 46 -16 95 l0 73 1050 0 1050
0 0 -83z"/>
<path d="M4977 5734 c-15 -16 -7 -53 14 -59 30 -10 58 19 43 43 -12 18 -45 28
-57 16z"/>
<path d="M2946 4839 c-30 -35 -32 -58 -11 -98 17 -33 33 -41 83 -41 41 1 63
13 80 47 18 33 14 59 -14 92 -21 26 -33 31 -69 31 -36 0 -48 -5 -69 -31z"/>
<path d="M3977 4863 c-4 -3 -7 -195 -7 -425 l0 -418 75 0 75 0 0 125 c0 94 3
125 13 125 6 -1 54 -57 105 -125 l92 -125 80 0 c44 0 80 3 80 6 0 6 -112 162
-206 289 l-23 31 104 134 105 135 -78 3 -77 3 -32 -38 c-18 -21 -56 -70 -85
-110 -29 -40 -59 -73 -65 -73 -10 0 -13 54 -13 235 l0 235 -68 0 c-38 0 -72
-3 -75 -7z"/>
<path d="M7220 4852 c-13 -10 -23 -33 -27 -59 -5 -35 -2 -45 20 -67 36 -36
104 -37 137 -1 34 37 33 90 -4 121 -33 29 -94 32 -126 6z"/>
<path d="M2310 4420 l0 -400 260 0 260 0 0 65 0 65 -180 0 -180 0 0 335 0 335
-80 0 -80 0 0 -400z"/>
<path d="M4590 4420 l0 -400 75 0 75 0 0 267 c0 162 4 263 9 258 5 -6 49 -125
98 -265 l89 -255 66 -3 66 -3 29 83 c17 46 59 165 93 266 35 100 67 182 72
182 4 0 8 -119 8 -265 l0 -265 75 0 75 0 0 400 0 400 -102 0 -103 0 -100 -295
c-55 -162 -103 -295 -106 -295 -4 0 -51 132 -106 293 l-100 292 -107 3 -106 3
0 -401z"/>
<path d="M6355 4753 c-68 -14 -64 -10 -67 -71 l-3 -57 -42 -3 -43 -3 0 -60 0
-59 45 0 45 0 0 -167 c0 -93 5 -184 10 -203 12 -45 65 -97 111 -110 67 -20
183 -7 208 23 7 10 6 28 -6 66 -15 45 -20 51 -38 46 -65 -19 -83 -18 -109 8
-26 26 -26 28 -26 182 l0 155 85 0 85 0 0 60 0 60 -85 0 -85 0 0 70 0 70 -32
-1 c-18 -1 -42 -3 -53 -6z"/>
<path d="M3510 4615 c-19 -8 -50 -32 -67 -53 l-33 -37 0 48 0 47 -75 0 -75 0
0 -300 0 -300 80 0 80 0 0 191 c0 205 7 242 54 272 33 22 83 30 119 18 58 -19
61 -34 65 -268 l4 -213 75 0 75 0 -4 233 c-3 224 -4 234 -28 281 -37 73 -66
90 -158 94 -52 1 -88 -3 -112 -13z"/>
<path d="M5755 4614 c-58 -20 -106 -64 -140 -125 -25 -46 -30 -68 -33 -145 -9
-203 84 -319 267 -332 109 -7 165 11 229 74 29 30 51 58 48 62 -3 5 -28 22
-55 40 l-51 31 -17 -25 c-23 -36 -64 -54 -124 -54 -84 0 -124 34 -145 123 l-6
27 202 0 202 0 -4 94 c-3 83 -7 100 -34 142 -45 73 -111 104 -218 103 -44 0
-99 -7 -121 -15z m163 -105 c35 -12 56 -40 66 -87 l8 -32 -126 0 c-141 0 -146
3 -106 68 32 53 95 73 158 51z"/>
<path d="M6975 4616 c-17 -7 -45 -31 -63 -52 l-31 -39 -1 48 0 47 -75 0 -75 0
0 -300 0 -300 80 0 80 0 0 180 c0 192 6 226 50 265 17 16 36 20 86 20 l63 0
11 48 c5 26 10 56 10 66 0 32 -79 41 -135 17z"/>
<path d="M7665 4606 c-63 -29 -105 -71 -136 -133 -19 -40 -23 -64 -24 -148 0
-85 4 -108 24 -153 46 -102 146 -162 272 -162 105 0 186 47 230 132 l19 38
-52 30 c-29 16 -56 30 -60 30 -3 0 -15 -15 -26 -34 -32 -53 -63 -69 -127 -64
-91 8 -126 58 -126 183 0 76 13 115 47 147 65 58 168 40 211 -37 10 -17 14
-15 66 22 l56 40 -18 29 c-26 42 -76 82 -119 94 -68 19 -181 12 -237 -14z"/>
<path d="M8245 4618 c-84 -29 -130 -98 -123 -180 8 -77 65 -136 152 -158 145
-37 174 -55 163 -102 -16 -64 -145 -62 -217 3 -17 16 -35 29 -39 29 -5 0 -25
-20 -46 -45 -35 -44 -36 -47 -21 -69 27 -42 118 -79 205 -84 168 -9 266 60
265 188 0 102 -51 151 -189 184 -101 24 -124 35 -131 63 -18 70 127 93 194 30
l22 -21 45 44 45 44 -27 28 c-14 15 -46 34 -71 43 -52 17 -181 19 -227 3z"/>
<path d="M2940 4320 l0 -300 75 0 75 0 0 300 0 300 -75 0 -75 0 0 -300z"/>
<path d="M7210 4320 l0 -300 75 0 75 0 0 300 0 300 -75 0 -75 0 0 -300z"/>
<path d="M4800 3605 c0 -33 -2 -35 -20 -25 -54 29 -104 -61 -65 -117 13 -18
25 -22 70 -22 l55 1 0 99 c0 92 -1 99 -20 99 -16 0 -20 -7 -20 -35z m-11 -59
c7 -8 11 -27 9 -43 -2 -22 -8 -28 -28 -28 -20 0 -26 6 -28 28 -3 27 12 57 28
57 4 0 13 -6 19 -14z"/>
<path d="M5510 3540 c0 -93 1 -100 20 -100 15 0 20 7 20 28 l1 27 22 -27 c13
-16 30 -28 40 -28 23 0 22 5 -8 44 l-25 33 20 26 c11 14 20 28 20 31 0 13 -25
5 -47 -16 l-23 -21 0 51 c0 45 -3 52 -20 52 -19 0 -20 -7 -20 -100z"/>
<path d="M5950 3540 c0 -82 3 -100 15 -100 11 0 15 12 15 50 0 38 4 52 18 59
28 15 42 -6 42 -61 0 -36 4 -48 15 -48 12 0 15 14 15 65 0 74 -17 93 -64 75
-25 -9 -26 -8 -26 25 0 24 -5 35 -15 35 -12 0 -15 -18 -15 -100z"/>
<path d="M7045 3630 c-8 -13 3 -30 20 -30 14 0 27 24 18 34 -10 9 -31 7 -38
-4z"/>
<path d="M7290 3540 c0 -93 1 -100 20 -100 15 0 20 7 20 28 l1 27 22 -27 c13
-16 30 -28 40 -28 23 0 22 5 -8 44 l-25 33 20 26 c11 14 20 28 20 31 0 13 -25
5 -47 -16 l-23 -21 0 51 c0 45 -3 52 -20 52 -19 0 -20 -7 -20 -100z"/>
<path d="M3310 3535 c0 -76 3 -95 15 -95 10 0 15 16 17 63 l3 62 21 -60 c15
-44 26 -60 39 -60 13 0 24 16 39 60 l21 60 3 -62 c2 -47 7 -63 17 -63 12 0 15
19 15 95 0 93 -1 95 -23 95 -20 0 -26 -10 -46 -72 l-24 -73 -25 73 c-22 61
-29 72 -49 72 -22 0 -23 -2 -23 -95z"/>
<path d="M4930 3615 c0 -9 9 -15 25 -15 25 0 25 -1 25 -80 0 -73 2 -80 20 -80
18 0 20 7 20 80 0 79 0 80 25 80 16 0 25 6 25 15 0 12 -14 15 -70 15 -56 0
-70 -3 -70 -15z"/>
<path d="M5784 3605 c-15 -23 -15 -27 0 -50 9 -14 31 -28 47 -32 34 -6 48 -28
30 -46 -8 -8 -19 -8 -43 1 -23 8 -35 9 -43 1 -16 -16 23 -39 66 -39 47 0 71
23 67 64 -3 26 -9 33 -48 47 -59 22 -60 45 -2 42 29 -1 42 2 42 12 0 16 -22
25 -66 25 -25 0 -38 -6 -50 -25z"/>
<path d="M6890 3535 l0 -95 65 0 c51 0 65 3 65 15 0 11 -12 15 -45 15 l-45 0
0 80 c0 73 -2 80 -20 80 -19 0 -20 -7 -20 -95z"/>
<path d="M6413 3613 c-7 -3 -13 -11 -13 -18 0 -7 -6 -15 -12 -18 -10 -4 -10
-7 0 -18 6 -7 12 -31 12 -54 0 -48 13 -65 52 -65 32 0 38 19 8 27 -38 10 -40
86 -2 91 28 4 29 22 2 22 -11 0 -24 8 -28 18 -4 11 -13 17 -19 15z"/>
<path d="M4105 3589 c-4 -6 -13 -8 -21 -5 -8 3 -25 1 -39 -4 -19 -7 -25 -17
-25 -38 0 -15 5 -33 12 -40 9 -9 9 -12 -1 -12 -9 0 -12 -9 -9 -24 3 -15 0 -27
-8 -30 -36 -14 4 -56 52 -56 47 0 74 16 74 43 0 32 -18 47 -57 47 -18 0 -33 5
-33 10 0 6 11 10 24 10 32 0 59 27 52 53 -3 11 -1 29 5 39 7 14 6 18 -5 18 -8
0 -18 -5 -21 -11z m-15 -48 c0 -11 -4 -22 -8 -25 -14 -9 -35 12 -29 28 9 23
37 20 37 -3z m15 -116 c0 -5 -15 -11 -32 -13 -25 -3 -33 1 -33 13 0 12 8 16
33 13 17 -2 32 -7 32 -13z"/>
<path d="M3573 3580 c-13 -5 -23 -17 -23 -26 0 -11 5 -14 18 -9 27 11 45 11
49 -1 2 -6 -11 -15 -28 -20 -40 -12 -58 -37 -43 -61 13 -21 52 -29 66 -15 7 7
16 7 29 -1 26 -16 29 -8 20 57 -10 77 -34 97 -88 76z m47 -89 c0 -24 -25 -34
-40 -16 -8 10 -7 16 7 24 26 15 33 13 33 -8z"/>
<path d="M3762 3581 c-7 -4 -24 -6 -38 -3 -24 4 -24 3 -24 -67 0 -64 2 -71 20
-71 17 0 20 7 20 49 0 49 18 79 40 66 5 -3 10 -31 10 -61 0 -47 2 -54 20 -54
18 0 20 7 20 58 0 31 -4 62 -8 68 -10 16 -45 25 -60 15z"/>
<path d="M3893 3580 c-13 -5 -23 -17 -23 -26 0 -11 5 -14 18 -9 27 11 45 11
49 -1 2 -6 -11 -15 -28 -20 -40 -12 -58 -37 -43 -61 13 -21 52 -29 66 -15 7 7
16 7 29 -1 26 -16 29 -8 20 57 -10 77 -34 97 -88 76z m47 -89 c0 -24 -25 -34
-40 -16 -8 10 -7 16 7 24 26 15 33 13 33 -8z"/>
<path d="M4203 3580 c-44 -18 -57 -86 -23 -120 22 -22 79 -27 98 -8 21 21 13
27 -29 25 -26 -1 -44 3 -46 11 -3 8 9 12 41 12 44 0 46 1 46 29 0 43 -43 68
-87 51z m47 -35 c11 -13 8 -15 -19 -15 -31 0 -42 14 -18 23 20 9 24 8 37 -8z"/>
<path d="M4413 3580 c-13 -5 -23 -17 -23 -26 0 -11 5 -14 18 -9 27 11 45 11
49 -1 2 -6 -11 -15 -28 -20 -40 -12 -58 -37 -43 -61 13 -21 52 -29 66 -15 7 7
16 7 29 -1 26 -16 29 -8 20 57 -10 77 -34 97 -88 76z m47 -89 c0 -24 -25 -34
-40 -16 -8 10 -7 16 7 24 26 15 33 13 33 -8z"/>
<path d="M4600 3580 c-8 -5 -25 -7 -37 -3 -22 5 -23 3 -23 -66 0 -56 3 -71 15
-71 11 0 15 12 15 44 0 48 20 79 45 70 11 -4 15 -22 15 -60 0 -47 2 -54 20
-54 18 0 20 7 20 55 0 42 -5 60 -20 75 -22 22 -29 24 -50 10z"/>
<path d="M5237 3578 c-27 -10 -33 -37 -6 -29 51 14 70 -9 20 -25 -41 -13 -56
-36 -41 -64 11 -21 54 -27 66 -9 4 8 9 8 17 0 16 -16 47 -13 47 4 0 8 -4 15
-10 15 -5 0 -10 23 -10 50 0 45 -3 52 -26 60 -14 6 -26 10 -27 9 -1 0 -15 -5
-30 -11z m53 -83 c0 -16 -34 -38 -44 -28 -12 12 -6 32 12 36 30 8 32 7 32 -8z"/>
<path d="M5400 3579 c-32 -13 -40 -26 -40 -70 0 -44 25 -69 67 -69 38 0 63 25
43 43 -10 9 -13 9 -17 0 -6 -16 -35 -17 -51 -1 -30 30 3 87 40 67 14 -8 23 -8
31 0 23 23 -33 46 -73 30z"/>
<path d="M6150 3579 c-32 -13 -40 -26 -40 -70 0 -43 25 -69 67 -69 39 0 67 31
67 76 0 53 -44 83 -94 63z m60 -59 c0 -33 -12 -50 -35 -50 -35 0 -47 46 -19
74 19 20 54 5 54 -24z"/>
<path d="M6535 3578 c-29 -16 -35 -28 -35 -69 0 -22 7 -42 18 -52 22 -20 73
-22 90 -5 21 21 13 29 -24 22 -26 -5 -39 -3 -45 7 -7 11 2 15 39 19 45 5 47 6
45 34 -1 16 -6 33 -10 37 -15 15 -58 19 -78 7z m53 -35 c2 -9 -7 -13 -28 -13
-28 0 -31 2 -20 15 15 18 41 16 48 -2z"/>
<path d="M6722 3581 c-7 -4 -24 -6 -38 -3 -24 4 -24 3 -24 -67 0 -64 2 -71 20
-71 17 0 20 7 20 49 0 49 18 79 40 66 5 -3 10 -31 10 -61 0 -47 2 -54 20 -54
18 0 20 7 20 58 0 31 -4 62 -8 68 -10 16 -45 25 -60 15z"/>
<path d="M7182 3581 c-7 -4 -24 -6 -38 -3 -24 4 -24 3 -24 -67 0 -64 2 -71 20
-71 17 0 20 7 20 50 0 38 4 52 18 59 28 15 42 -6 42 -61 0 -36 4 -48 15 -48
12 0 15 14 15 65 0 53 -3 66 -19 75 -24 12 -32 12 -49 1z"/>
<path d="M7453 3580 c-41 -17 -27 -73 21 -81 11 -2 21 -10 24 -18 4 -11 -3
-12 -30 -7 -19 3 -37 3 -41 0 -14 -15 17 -34 54 -34 29 0 41 5 49 21 16 29 6
48 -35 65 -39 16 -38 39 0 30 30 -8 42 10 16 23 -23 13 -28 13 -58 1z"/>
<path d="M5100 3509 c0 -62 2 -69 19 -69 17 0 20 8 23 53 3 45 6 52 26 55 12
2 22 9 22 17 0 9 -14 13 -45 13 l-45 0 0 -69z"/>
<path d="M6280 3509 c0 -62 2 -69 19 -69 17 0 20 8 23 53 3 45 6 52 26 55 12
2 22 9 22 17 0 9 -14 13 -45 13 l-45 0 0 -69z"/>
<path d="M7050 3510 c0 -56 3 -70 15 -70 12 0 15 14 15 70 0 56 -3 70 -15 70
-12 0 -15 -14 -15 -70z"/>
<path d="M2210 3540 c0 -20 7 -20 455 -20 448 0 455 0 455 20 0 20 -7 20 -455
20 -448 0 -455 0 -455 -20z"/>
<path d="M7707 3533 c-4 -3 -7 -12 -7 -20 0 -11 83 -13 460 -13 453 0 460 0
460 20 0 20 -7 20 -453 20 -250 0 -457 -3 -460 -7z"/>
</g>
</svg>
